<?xml version="1.0" standalone="no"?>
<svg xmlns:xlink="http://www.w3.org/1999/xlink" id="wave" style="transform:rotate(180deg); transition: 0.3s" viewBox="0 0 1440 100" version="1.1" xmlns="http://www.w3.org/2000/svg"><defs><linearGradient id="sw-gradient-0" x1="0" x2="0" y1="1" y2="0"><stop stop-color="rgba(255, 249, 234, 1)" offset="0%"/><stop stop-color="rgba(255, 249, 234, 1)" offset="100%"/></linearGradient></defs><path style="transform:translate(0, 0px); opacity:1" fill="url(#sw-gradient-0)" d="M0,50L60,51.7C120,53,240,57,360,51.7C480,47,600,33,720,35C840,37,960,53,1080,56.7C1200,60,1320,50,1440,38.3C1560,27,1680,13,1800,21.7C1920,30,2040,60,2160,73.3C2280,87,2400,83,2520,81.7C2640,80,2760,80,2880,71.7C3000,63,3120,47,3240,33.3C3360,20,3480,10,3600,16.7C3720,23,3840,47,3960,46.7C4080,47,4200,23,4320,26.7C4440,30,4560,60,4680,60C4800,60,4920,30,5040,18.3C5160,7,5280,13,5400,16.7C5520,20,5640,20,5760,23.3C5880,27,6000,33,6120,33.3C6240,33,6360,27,6480,21.7C6600,17,6720,13,6840,15C6960,17,7080,23,7200,23.3C7320,23,7440,17,7560,18.3C7680,20,7800,30,7920,38.3C8040,47,8160,53,8280,50C8400,47,8520,33,8580,26.7L8640,20L8640,100L8580,100C8520,100,8400,100,8280,100C8160,100,8040,100,7920,100C7800,100,7680,100,7560,100C7440,100,7320,100,7200,100C7080,100,6960,100,6840,100C6720,100,6600,100,6480,100C6360,100,6240,100,6120,100C6000,100,5880,100,5760,100C5640,100,5520,100,5400,100C5280,100,5160,100,5040,100C4920,100,4800,100,4680,100C4560,100,4440,100,4320,100C4200,100,4080,100,3960,100C3840,100,3720,100,3600,100C3480,100,3360,100,3240,100C3120,100,3000,100,2880,100C2760,100,2640,100,2520,100C2400,100,2280,100,2160,100C2040,100,1920,100,1800,100C1680,100,1560,100,1440,100C1320,100,1200,100,1080,100C960,100,840,100,720,100C600,100,480,100,360,100C240,100,120,100,60,100L0,100Z"/></svg>