<?xml version="1.0" standalone="no"?>
<svg xmlns:xlink="http://www.w3.org/1999/xlink" id="wave" style="transform:rotate(180deg); transition: 0.3s" viewBox="0 0 1440 100" version="1.1" xmlns="http://www.w3.org/2000/svg"><defs><linearGradient id="sw-gradient-0" x1="0" x2="0" y1="1" y2="0"><stop stop-color="rgba(255, 249, 234, 1)" offset="0%"/><stop stop-color="rgba(255, 249, 234, 1)" offset="100%"/></linearGradient></defs><path style="transform:translate(0, 0px); opacity:1" fill="url(#sw-gradient-0)" d="M0,50L48,51.7C96,53,192,57,288,51.7C384,47,480,33,576,35C672,37,768,53,864,56.7C960,60,1056,50,1152,38.3C1248,27,1344,13,1440,21.7C1536,30,1632,60,1728,73.3C1824,87,1920,83,2016,81.7C2112,80,2208,80,2304,71.7C2400,63,2496,47,2592,33.3C2688,20,2784,10,2880,16.7C2976,23,3072,47,3168,46.7C3264,47,3360,23,3456,26.7C3552,30,3648,60,3744,60C3840,60,3936,30,4032,18.3C4128,7,4224,13,4320,16.7C4416,20,4512,20,4608,23.3C4704,27,4800,33,4896,33.3C4992,33,5088,27,5184,21.7C5280,17,5376,13,5472,15C5568,17,5664,23,5760,23.3C5856,23,5952,17,6048,18.3C6144,20,6240,30,6336,38.3C6432,47,6528,53,6624,50C6720,47,6816,33,6864,26.7L6912,20L6912,100L6864,100C6816,100,6720,100,6624,100C6528,100,6432,100,6336,100C6240,100,6144,100,6048,100C5952,100,5856,100,5760,100C5664,100,5568,100,5472,100C5376,100,5280,100,5184,100C5088,100,4992,100,4896,100C4800,100,4704,100,4608,100C4512,100,4416,100,4320,100C4224,100,4128,100,4032,100C3936,100,3840,100,3744,100C3648,100,3552,100,3456,100C3360,100,3264,100,3168,100C3072,100,2976,100,2880,100C2784,100,2688,100,2592,100C2496,100,2400,100,2304,100C2208,100,2112,100,2016,100C1920,100,1824,100,1728,100C1632,100,1536,100,1440,100C1344,100,1248,100,1152,100C1056,100,960,100,864,100C768,100,672,100,576,100C480,100,384,100,288,100C192,100,96,100,48,100L0,100Z"/></svg>