<?xml version="1.0" standalone="no"?>
<svg xmlns:xlink="http://www.w3.org/1999/xlink" id="wave" style="transform:rotate(0deg); transition: 0.3s" viewBox="0 0 1440 380" version="1.1" xmlns="http://www.w3.org/2000/svg"><defs><linearGradient id="sw-gradient-0" x1="0" x2="0" y1="1" y2="0"><stop stop-color="rgba(72, 230, 90, 1)" offset="0%"/><stop stop-color="rgba(255, 255, 255, 1)" offset="100%"/></linearGradient></defs><path style="transform:translate(0, 0px); opacity:1" fill="url(#sw-gradient-0)" d="M0,190L120,196.3C240,203,480,215,720,196.3C960,177,1200,127,1440,133C1680,139,1920,203,2160,215.3C2400,228,2640,190,2880,145.7C3120,101,3360,51,3600,82.3C3840,114,4080,228,4320,278.7C4560,329,4800,317,5040,310.3C5280,304,5520,304,5760,272.3C6000,241,6240,177,6480,126.7C6720,76,6960,38,7200,63.3C7440,89,7680,177,7920,177.3C8160,177,8400,89,8640,101.3C8880,114,9120,228,9360,228C9600,228,9840,114,10080,69.7C10320,25,10560,51,10800,63.3C11040,76,11280,76,11520,88.7C11760,101,12000,127,12240,126.7C12480,127,12720,101,12960,82.3C13200,63,13440,51,13680,57C13920,63,14160,89,14400,88.7C14640,89,14880,63,15120,69.7C15360,76,15600,114,15840,145.7C16080,177,16320,203,16560,190C16800,177,17040,127,17160,101.3L17280,76L17280,380L17160,380C17040,380,16800,380,16560,380C16320,380,16080,380,15840,380C15600,380,15360,380,15120,380C14880,380,14640,380,14400,380C14160,380,13920,380,13680,380C13440,380,13200,380,12960,380C12720,380,12480,380,12240,380C12000,380,11760,380,11520,380C11280,380,11040,380,10800,380C10560,380,10320,380,10080,380C9840,380,9600,380,9360,380C9120,380,8880,380,8640,380C8400,380,8160,380,7920,380C7680,380,7440,380,7200,380C6960,380,6720,380,6480,380C6240,380,6000,380,5760,380C5520,380,5280,380,5040,380C4800,380,4560,380,4320,380C4080,380,3840,380,3600,380C3360,380,3120,380,2880,380C2640,380,2400,380,2160,380C1920,380,1680,380,1440,380C1200,380,960,380,720,380C480,380,240,380,120,380L0,380Z"/></svg>