<?xml version="1.0" standalone="no"?>
<svg xmlns:xlink="http://www.w3.org/1999/xlink" id="wave" style="transform:rotate(180deg); transition: 0.3s" viewBox="0 0 1440 180" version="1.1" xmlns="http://www.w3.org/2000/svg"><defs><linearGradient id="sw-gradient-0" x1="0" x2="0" y1="1" y2="0"><stop stop-color="rgba(255, 249, 234, 1)" offset="0%"/><stop stop-color="rgba(255, 249, 234, 1)" offset="100%"/></linearGradient></defs><path style="transform:translate(0, 0px); opacity:1" fill="url(#sw-gradient-0)" d="M0,90L60,93C120,96,240,102,360,93C480,84,600,60,720,63C840,66,960,96,1080,102C1200,108,1320,90,1440,69C1560,48,1680,24,1800,39C1920,54,2040,108,2160,132C2280,156,2400,150,2520,147C2640,144,2760,144,2880,129C3000,114,3120,84,3240,60C3360,36,3480,18,3600,30C3720,42,3840,84,3960,84C4080,84,4200,42,4320,48C4440,54,4560,108,4680,108C4800,108,4920,54,5040,33C5160,12,5280,24,5400,30C5520,36,5640,36,5760,42C5880,48,6000,60,6120,60C6240,60,6360,48,6480,39C6600,30,6720,24,6840,27C6960,30,7080,42,7200,42C7320,42,7440,30,7560,33C7680,36,7800,54,7920,69C8040,84,8160,96,8280,90C8400,84,8520,60,8580,48L8640,36L8640,180L8580,180C8520,180,8400,180,8280,180C8160,180,8040,180,7920,180C7800,180,7680,180,7560,180C7440,180,7320,180,7200,180C7080,180,6960,180,6840,180C6720,180,6600,180,6480,180C6360,180,6240,180,6120,180C6000,180,5880,180,5760,180C5640,180,5520,180,5400,180C5280,180,5160,180,5040,180C4920,180,4800,180,4680,180C4560,180,4440,180,4320,180C4200,180,4080,180,3960,180C3840,180,3720,180,3600,180C3480,180,3360,180,3240,180C3120,180,3000,180,2880,180C2760,180,2640,180,2520,180C2400,180,2280,180,2160,180C2040,180,1920,180,1800,180C1680,180,1560,180,1440,180C1320,180,1200,180,1080,180C960,180,840,180,720,180C600,180,480,180,360,180C240,180,120,180,60,180L0,180Z"/></svg>